<svg id="svg" version="1.1" viewBox="0 0 300 300" width="300" height="300" xmlns="http://www.w3.org/2000/svg"><svg xmlns="http://www.w3.org/2000/svg"><defs><clipPath id="clip-1"><rect x="0" y="0" transform="scale(0.20833,0.20833)" width="1440" height="1440" fill="none"/></clipPath><linearGradient x1="157.33958" y1="280.45625" x2="139.36792" y2="79.0575" gradientUnits="userSpaceOnUse" id="color-1"><stop offset="0" stop-color="#bb0000"/><stop offset="1" stop-color="#df2119"/></linearGradient><linearGradient x1="198.39208" y1="148.44938" x2="236.3875" y2="110.56417" gradientUnits="userSpaceOnUse" id="color-2"><stop offset="0" stop-color="#ff4f2f"/><stop offset="1" stop-color="#da5a59"/></linearGradient><linearGradient x1="211.79167" y1="138.68604" x2="235.90417" y2="114.67396" gradientUnits="userSpaceOnUse" id="color-3"><stop offset="0" stop-color="#ff8873"/><stop offset="1" stop-color="#df898b"/></linearGradient></defs><g clip-path="url(#clip-1)" fill="none" fill-rule="nonzero" stroke="none" stroke-width="1" stroke-linecap="butt" stroke-linejoin="miter" stroke-miterlimit="10" stroke-dasharray="" stroke-dashoffset="0" font-family="none" font-weight="none" font-size="none" text-anchor="none" style="mix-blend-mode: normal"><path d="M0,0h20.02527h19.9589h20.04h19.95979h20.04021h19.96h20.04h19.96h20.04h19.95875h20.04208h19.95833h20.04167h19.95833h20.01667v19.99871v20.00608v19.98896v20.01167v19.98833v20.01104v19.98896v20.01167v19.98833v20.01104v19.98896v20.01042v19.99583v20.00417v19.99583h-20.01667h-19.97292h-20.025h-19.97917h-20.01729h-19.97187h-20.03396h-19.96646h-20.035h-19.97563h-20.02063h-19.97542h-20.02458h-19.97769h-20.00773v-19.97292v-20.01875v-19.97292v-20.02708v-19.97958v-20.02104v-19.97187v-20.01688v-19.99979v-20v-19.99312v-20.01812v-19.97208v-20.0261z" fill="url(#color-1)"/><path d="M0,0h20.02527h19.9589h20.04h19.95979h20.04021h19.96h20.04h19.96h20.04h19.95875h20.04208h19.95833h20.04167h19.95833h20.01667v19.99871v20.00608v19.98896v20.01167v19.98833v20.01104v19.98896c-6.50833,0.13208 -13.47708,0.03479 -20.01667,0.02146c-3.85625,-0.04354 -7.7125,-0.05875 -11.57083,-0.04583c-1.9375,0.00042 -6.66875,-0.32062 -8.07083,0.79313c-2.86042,-9.69083 -6.4,-17.46771 -12.6875,-25.52125c-3.68333,-4.68354 -7.86042,-8.95687 -12.45833,-12.74667c-2.89375,-2.4225 -6.51667,-5.37188 -9.76875,-7.24063c-12.58542,-7.22771 -28.40042,-10.34917 -42.64875,-12.11854c-1.03,0.26917 -2.58375,2.7625 -3.32375,3.68667c-1.57187,1.97396 -3.32292,3.79854 -5.23062,5.45021c-5.04625,4.01042 -7.85937,7.16854 -14.55667,7.93708c-0.84333,0.09667 -6.17937,0.87104 -6.8125,1.04583c-6.02833,0.38542 -11.82479,1.60958 -17.86979,1.50125c-2.98313,-0.05354 -4.95667,-0.81542 -7.49271,-1.08479c-0.43021,-0.29583 -1.82688,-1.88104 -2.29667,-2.39042c-0.44625,-0.70896 -1.20333,-1.70458 -1.70708,-2.41312c-0.99292,-2.12125 -3.71812,-6.50417 -4.995,-8.52c-0.625,-1.37875 -3.38208,-6.00063 -4.39812,-6.9925c-0.48,-0.71708 -1.18979,-1.33062 -1.82125,-1.92812c0.115,-1.97271 -5.005,-8.66063 -6.365,-10.34333c-1.84792,-2.28646 -4.77854,-4.77354 -7.01042,-6.68208c-14.61854,-2.22979 -24.66958,0.16292 -38.93646,2.92917c-6.48792,1.26229 -12.75667,2.69104 -19.17146,3.98396l-0.40104,-0.20375c-0.61187,-1.21229 -0.39896,-7.41958 -0.40333,-9.1025l-19.9754,-0.02333c-0.04552,6.67604 -0.05596,13.35208 -0.03129,20.02792c-1.85858,-0.13229 -5.06902,-0.02958 -7.0075,-0.02917c-4.32413,-0.01208 -8.64829,0.00188 -12.97227,0.04167v-20.01812v-19.97208v-20.0261z" fill="#fefefe"/><path d="M239.98333,0h20.04167h19.95833h20.01667v19.99871v20.00608v19.98896v20.01167v19.98833v20.01104v19.98896c-6.50833,0.13208 -13.47708,0.03479 -20.01667,0.02146c-3.85625,-0.04354 -7.7125,-0.05875 -11.57083,-0.04583c-1.9375,0.00042 -6.66875,-0.32062 -8.07083,0.79313c-2.86042,-9.69083 -6.4,-17.46771 -12.6875,-25.52125c-3.68333,-4.68354 -7.86042,-8.95687 -12.45833,-12.74667c-2.89375,-2.4225 -6.51667,-5.37188 -9.76875,-7.24063c-12.58542,-7.22771 -28.40042,-10.34917 -42.64875,-12.11854c3.835,-5.22687 9.87042,-13.95521 12.02708,-20.08896c3.60583,0.60729 7.15792,1.06417 10.69313,2.05729c8.27646,2.32437 26.96604,10.045 34.82437,7.33813c0.94167,-0.32396 1.92292,-0.92292 2.36667,-1.84104l-0.25208,-0.19792l-0.74167,0.23917c-0.66042,-0.03729 -1.05625,-0.0875 -1.70833,-0.19937c-0.13333,-0.30062 0.01042,-9.38125 0,-10.4325c-1.77917,-0.11687 -4.95,-0.01917 -6.85,-0.01854l-13.11667,-0.02187l-0.03125,-19.9575c-0.0375,-2.75062 -0.05625,-9.33667 -0.05417,-12.37875c-0.11875,-0.12167 -0.23542,-0.24354 -0.35208,-0.36542l-0.75833,-0.04896l0.27292,-0.41042l1.00208,-0.21563c-0.17708,-2.01771 -0.08125,-4.55604 -0.05208,-6.59973c6.64375,-0.03658 13.2875,-0.02821 19.93125,0.02508z" fill="#fefefe"/><path d="M239.98333,0h20.04167h19.95833l-0.00208,20.01842c-6.65625,-0.05227 -13.3125,-0.06208 -19.96875,-0.02946l-0.02917,20.02896c-6.65625,-0.05104 -13.3125,-0.05958 -19.96875,-0.02542c-0.04583,6.67229 -0.05417,13.345 -0.02708,20.01771c-1.77917,-0.11687 -4.95,-0.01917 -6.85,-0.01854l-13.11667,-0.02187l-0.03125,-19.9575c-0.0375,-2.75062 -0.05625,-9.33667 -0.05417,-12.37875c-0.11875,-0.12167 -0.23542,-0.24354 -0.35208,-0.36542l-0.75833,-0.04896l0.27292,-0.41042l1.00208,-0.21563c-0.17708,-2.01771 -0.08125,-4.55604 -0.05208,-6.59973c6.64375,-0.03658 13.2875,-0.02821 19.93125,0.02508z" fill="#fefefe"/><path d="M220.04792,19.9934c6.64375,-0.03658 13.2875,-0.02821 19.93125,0.02508c0.08333,6.49694 -0.1625,13.62069 0.05625,19.9834c-6.63958,0.01375 -13.42083,0.09146 -20.04583,0.01042c-0.0375,-2.75062 -0.05625,-9.33667 -0.05417,-12.37875c-0.11875,-0.12167 -0.23542,-0.24354 -0.35208,-0.36542l-0.75833,-0.04896l0.27292,-0.41042l1.00208,-0.21563c-0.17708,-2.01771 -0.08125,-4.55604 -0.05208,-6.59973z" fill="#efefee"/><path d="M220.1,26.59313l2.82292,0.11229c-0.51042,0.08375 -2.96042,0.44167 -3.33958,0.56271l-0.75833,-0.04896l0.27292,-0.41042z" fill="#b1b3af"/><path d="M239.98333,0h20.04167c-0.0125,6.38879 -0.17917,13.67317 0.0125,20.00175l-20.05833,0.01673z" fill="#efefee"/><path d="M240.01458,79.97917c6.64167,0.06812 13.33125,-0.08521 19.96667,0.03917c0.14583,6.56937 -0.00417,13.37146 0.05625,19.98313c-5.78958,0.00896 -11.57917,-0.02312 -17.36667,0.00854c-1.57917,0.00854 -1.91667,-0.09646 -2.97083,1.07104l-0.18542,-0.60667c-0.35208,-0.12625 -3.28333,-0.04937 -3.97917,-0.07042l-0.08333,-0.02542l-0.01875,-0.10958c1.50833,-0.06417 3.01458,-0.1575 4.51875,-0.27958c0.1375,-6.51542 0.03542,-13.45917 0.0625,-20.01021z" fill="#efefee"/><path d="M260.01458,99.98833c6.64167,0.035 13.33125,-0.08042 19.96667,0.02979c0.14583,6.56771 -0.00417,13.37292 0.05625,19.98313c-6.64792,0.01292 -13.4625,-0.06771 -20.09375,0.06208c0.30417,-5.50292 0.04375,-14.27396 0.07083,-20.075z" fill="#efefee"/><path d="M240.01458,39.9925c6.65625,-0.03417 13.3125,-0.02563 19.96875,0.02542c0.05833,6.39917 -0.17708,13.72833 0.05417,19.98542c-6.60208,0.00729 -13.47083,0.10917 -20.05,0.00688c-0.02708,-6.67271 -0.01875,-13.34542 0.02708,-20.01771z" fill="#efefee"/><path d="M279.98333,0h20.01667v19.99871l-20.01875,0.01971z" fill="#efefee"/><path d="M280.01042,79.9875l19.98958,0.01792v19.98833c-6.51458,0.13208 -13.47292,0.02771 -20.01875,0.02437z" fill="#efefee"/><path d="M280.01042,119.98708l19.98958,0.01771v19.98896c-6.50833,0.13208 -13.47708,0.03479 -20.01667,0.02146z" fill="#efefee"/><path d="M280.01042,39.98833l19.98958,0.01646v19.98896c-6.51458,0.13229 -13.47083,0.0275 -20.01667,0.02437z" fill="#efefee"/><path d="M260.0125,19.98896c6.65625,-0.03263 13.3125,-0.02281 19.96875,0.02946c0.06667,6.42388 -0.175,13.70367 0.05625,19.98262c-6.65625,0.01292 -13.40833,0.07833 -20.05417,0.01688z" fill="#efefee"/><path d="M260.0125,59.98688c6.64583,0.045 13.32917,-0.07917 19.97083,0.03125c0.0625,6.3425 -0.19583,13.81063 0.05833,19.98313l-20.06042,0.01708z" fill="#efefee"/><path d="M0,0h20.02527h19.9589h20.04h19.95979l-0.00146,20.01871c-6.63208,-0.11475 -13.32979,0.00569 -19.97021,-0.03042l-0.02896,20.03046c-6.63167,-0.11604 -13.33104,0.00562 -19.97125,-0.03063c-0.04229,6.67354 -0.05083,13.34729 -0.02563,20.02083l-19.9754,-0.02333c-0.04552,6.67604 -0.05596,13.35208 -0.03129,20.02792c-1.85858,-0.13229 -5.06902,-0.02958 -7.0075,-0.02917c-4.32413,-0.01208 -8.64829,0.00188 -12.97227,0.04167v-20.01812v-19.97208v-20.0261z" fill="#fefefe"/><path d="M0,0h20.02527h19.9589l-0.00312,20.01869c-6.63292,-0.11496 -13.32792,0.00806 -19.96873,-0.03063l-0.03025,20.03006c-1.84915,-0.13104 -5.02219,-0.02958 -6.94987,-0.02937c-4.34412,-0.01833 -8.68831,-0.0025 -13.03219,0.04708v-20.0261z" fill="#fefefe"/><path d="M0,0h20.02527c-0.01165,6.34273 -0.18879,13.74075 0.01473,20.00292l-20.04,0.00681z" fill="#efefee"/><path d="M39.98417,0h20.04c-0.01167,6.38385 -0.17771,13.68738 0.01312,20.00177l-20.05625,0.01692z" fill="#efefee"/><path d="M0,40.03583c4.34387,-0.04958 8.68806,-0.06542 13.03219,-0.04708c1.92769,-0.00021 5.10073,-0.10167 6.94987,0.02937c0.06535,6.41771 -0.17437,13.70937 0.05556,19.98396l-20.03763,0.00583z" fill="#efefee"/><path d="M20.01231,19.98806c6.64081,0.03869 13.33581,-0.08433 19.96873,0.03063c0.06562,6.41527 -0.175,13.71152 0.05562,19.98256l-20.0546,0.01687z" fill="#efefee"/><path d="M190.44229,18.25979c8.77125,2.08206 11.53563,5.88021 12.41292,14.73292c2.49125,-1.62438 4.08896,-2.495 6.84688,-3.68042c3.25208,-1.35042 5.94167,-2.04708 9.39583,-2.50354l-0.27292,0.41042l0.75833,0.04896c0.11667,0.12188 0.23333,0.24375 0.35208,0.36542c-0.00208,3.04208 0.01667,9.62813 0.05417,12.37875l0.03125,19.9575l13.11667,0.02187c1.9,-0.00063 5.07083,-0.09833 6.85,0.01854c0.01042,1.05125 -0.13333,10.13188 0,10.4325c0.65208,0.11187 1.04792,0.16208 1.70833,0.19937l0.74167,-0.23917l0.25208,0.19792c-0.44375,0.91812 -1.425,1.51708 -2.36667,1.84104c-7.85833,2.70687 -26.54792,-5.01375 -34.82437,-7.33813c-3.53521,-0.99313 -7.08729,-1.45 -10.69313,-2.05729c-2.15667,6.13375 -8.19208,14.86208 -12.02708,20.08896c-1.03,0.26917 -2.58375,2.7625 -3.32375,3.68667c-1.57187,1.97396 -3.32292,3.79854 -5.23062,5.45021c-5.04625,4.01042 -7.85937,7.16854 -14.55667,7.93708c-0.84333,0.09667 -6.17937,0.87104 -6.8125,1.04583c-6.02833,0.38542 -11.82479,1.60958 -17.86979,1.50125c-2.98313,-0.05354 -4.95667,-0.81542 -7.49271,-1.08479c-0.43021,-0.29583 -1.82688,-1.88104 -2.29667,-2.39042c-0.44625,-0.70896 -1.20333,-1.70458 -1.70708,-2.41312c-0.99292,-2.12125 -3.71812,-6.50417 -4.995,-8.52c-0.625,-1.37875 -3.38208,-6.00063 -4.39812,-6.9925c-0.48,-0.71708 -1.18979,-1.33062 -1.82125,-1.92812c0.115,-1.97271 -5.005,-8.66063 -6.365,-10.34333c-1.84792,-2.28646 -4.77854,-4.77354 -7.01042,-6.68208c-2.8725,-4.53208 -4.47313,-11.785 -5.52313,-16.98562c-0.36417,-1.80354 -0.48271,-3.76125 -0.94167,-5.57625l-0.04979,-0.18875c-0.40833,-2.43875 -0.90563,-5.10667 -0.91042,-7.56958c3.90542,11.98792 9.42667,26.28354 19.56979,34.42833c0.31729,1.15125 1.29896,2.00583 2.07833,3.0575c3.66167,4.31354 7.29729,8.64958 10.90604,13.0075c1.79292,2.16458 6.59333,8.44958 8.73875,9.84167c4.61292,2.99333 15.25333,0.38958 19.55187,-2.87521c2.36604,-1.79687 3.05708,-7.18 4.12854,-9.98146c0.00167,-0.05375 0.00354,-0.1075 0.00542,-0.16125c4.77812,-8.95625 8.65625,-16.685 17.58354,-22.3475c2.38917,-1.51542 5.44917,-2.49354 7.58167,-3.93896c1.40188,-2.37521 6.56313,-8.12917 8.555,-10.10667c1.69646,-1.695 3.46667,-3.31458 5.30542,-4.85375c0.99083,-0.81896 2.975,-2.06125 3.43271,-3.12292c-1.43438,-6.39792 -2.93438,-12.77375 -8.46854,-16.76937z" fill="#334e02"/><path d="M219.09792,26.80875l-0.27292,0.41042l0.75833,0.04896c0.11667,0.12188 0.23333,0.24375 0.35208,0.36542c-0.00208,3.04208 0.01667,9.62813 0.05417,12.37875l0.03125,19.9575l13.11667,0.02187c1.9,-0.00063 5.07083,-0.09833 6.85,0.01854c0.01042,1.05125 -0.13333,10.13188 0,10.4325c0.65208,0.11187 1.04792,0.16208 1.70833,0.19937c-6.28542,1.7925 -27.475,-10.98354 -33.69312,-13.99875c-2.95625,-1.45458 -6.04687,-2.61833 -9.22833,-3.47458c1.7225,-4.07542 2.87313,-9.02771 3.60854,-13.37c0.12146,-1.43021 0.24854,-2.57083 0.79438,-3.89979c-0.57083,-1.08167 -0.37458,-1.59792 -0.32208,-2.90625c2.49125,-1.62438 4.08896,-2.495 6.84688,-3.68042c3.25208,-1.35042 5.94167,-2.04708 9.39583,-2.50354z" fill="#efefee"/><path d="M219.09792,26.80875l-0.27292,0.41042l0.75833,0.04896c0.11667,0.12188 0.23333,0.24375 0.35208,0.36542c-0.00208,3.04208 0.01667,9.62813 0.05417,12.37875c-3.67292,-0.11687 -7.4625,0.03687 -11.14375,0.00438c-1.73792,-0.01542 -4.81771,0.12771 -6.46292,-0.21792c0.12146,-1.43021 0.24854,-2.57083 0.79438,-3.89979c-0.57083,-1.08167 -0.37458,-1.59792 -0.32208,-2.90625c2.49125,-1.62438 4.08896,-2.495 6.84688,-3.68042c3.25208,-1.35042 5.94167,-2.04708 9.39583,-2.50354z" fill="#fefefe"/><path d="M209.70208,29.31229l-0.3875,0.79812l0.2625,0.42771c-2.74792,1.78708 -4.09854,3.00646 -6.39979,5.36083c-0.57083,-1.08167 -0.37458,-1.59792 -0.32208,-2.90625c2.49125,-1.62438 4.08896,-2.495 6.84688,-3.68042z" fill="#5e8513"/><path d="M219.09792,26.80875l-0.27292,0.41042c-3.88958,0.78458 -5.77917,1.49042 -9.24792,3.31896l-0.2625,-0.42771l0.3875,-0.79812c3.25208,-1.35042 5.94167,-2.04708 9.39583,-2.50354z" fill="#606f2b"/><path d="M198.91083,35.02917c0.64354,6.36187 -1.04979,11.81979 -4.18729,17.26667c-2.5225,-0.08583 -4.22375,-0.14104 -6.69979,0.015c-1.55958,0.09854 -5.41167,0.91979 -6.40604,0.80167c1.40188,-2.37521 6.56313,-8.12917 8.555,-10.10667c1.69646,-1.695 3.46667,-3.31458 5.30542,-4.85375c0.99083,-0.81896 2.975,-2.06125 3.43271,-3.12292z" fill="#5e8513"/><path d="M170.32646,81.75583c2.88083,-11.39375 7.76875,-15.76167 18.89917,-18.57604c-0.30104,1.09688 -0.96313,4.64042 -1.20479,5.30938c-0.87875,5.16917 -1.32708,10.15063 -5.92979,14.30271c-0.11646,0.10479 -0.38875,0.17333 -0.53833,0.2125c-0.70542,0.2575 -0.55208,0.38438 -0.98187,0.83167c-2.60917,2.71458 -7.3225,4.43187 -10.92292,4.79854c0.09521,-1.66125 0.2175,-5.4575 0.67854,-6.87875z" fill="#efefee"/><path d="M170.32646,81.75583c2.88083,-11.39375 7.76875,-15.76167 18.89917,-18.57604c-0.30104,1.09688 -0.96313,4.64042 -1.20479,5.30938l-0.31417,-0.27312c-0.66979,0.37521 -0.91438,1.015 -1.47479,1.52958c-4.19667,3.85396 -10.17292,9.49667 -15.19625,12.07z" fill="#5e8513"/><path d="M170.32646,81.75583l0.70917,0.05979c3.51021,0.35625 7.01604,0.7525 10.51708,1.18875c-0.70542,0.2575 -0.55208,0.38438 -0.98187,0.83167c-2.60917,2.71458 -7.3225,4.43187 -10.92292,4.79854c0.09521,-1.66125 0.2175,-5.4575 0.67854,-6.87875z" fill="#bb0302"/><path d="M145.08958,80.66646c-0.21187,-2.28875 -0.45271,-4.24917 -1.08375,-6.45542c-1.11542,-3.89875 -2.87208,-7.28458 -2.60292,-11.42563c0.69875,-10.74396 12.64979,-24.78229 20.37063,-31.55062l0.33458,0.86583c-2.07271,3.10688 -4.1125,6.23375 -6.12979,9.35917c-2.84375,4.40646 -4.84229,7.85313 -5.00792,13.24854c-0.24667,8.04167 -0.43146,18.4975 5.48208,24.69062c-0.00188,0.05375 -0.00375,0.1075 -0.00542,0.16125c-1.07146,2.80146 -1.7625,8.18458 -4.12854,9.98146c-4.29854,3.26479 -14.93896,5.86854 -19.55187,2.87521c-2.14542,-1.39208 -6.94583,-7.67708 -8.73875,-9.84167c-3.60875,-4.35792 -7.24437,-8.69396 -10.90604,-13.0075c-0.77937,-1.05167 -1.76104,-1.90625 -2.07833,-3.0575c1.06063,0.47562 2.25625,0.96354 3.2075,1.60979c7.45021,4.18708 9.14083,7.42896 14.645,12.64292c3.44667,-0.29771 9.1425,-0.14896 12.66604,-0.05854c1.16687,0.00208 2.35833,-0.02458 3.5275,-0.03792z" fill="#5e8513"/><path d="M128.89604,80.76292c3.44667,-0.29771 9.1425,-0.14896 12.66604,-0.05854c1.16146,0.04542 2.31125,0.09917 3.47417,0.08958c-0.05354,2.785 -0.29646,5.77083 -2.39917,7.96062c-4.08167,4.25021 -11.69792,-4.56167 -13.74104,-7.99167z" fill="#bb0302"/><path d="M80.00146,39.97521c3.61083,0.01937 7.52542,0.10479 11.10458,-0.095c-1.82854,-0.43271 -10.11312,0.48042 -10.95167,-0.59208l0.13479,-0.41042c1.52188,-1.05313 6.24938,-0.42958 8.24688,-0.70125c0.83896,-0.11417 1.84896,-0.30396 2.67542,-0.29833c0.6175,0.48771 0.65833,0.97812 0.75812,1.78583l0.02125,0.18437l0.39333,-0.19687l0.04979,0.18875c0.45896,1.815 0.5775,3.77271 0.94167,5.57625c1.05,5.20063 2.65063,12.45354 5.52313,16.98563c-14.61854,-2.22979 -24.66958,0.16292 -38.93646,2.92917l0.04312,-5.32958c6.37438,-0.09937 13.42792,0.09771 19.79417,0.25104c0.44292,-5.23875 0.18562,-14.68104 0.20187,-20.2775z" fill="#efefee"/><path d="M199.98292,0h20.04208c-0.11458,6.50742 -0.04375,13.47877 0.01042,20.0036l-11.87729,-0.00008c-2.35563,0.00344 -5.95833,-0.06381 -8.19646,0.27098c-0.13167,-6.58035 0.00667,-13.65738 0.02125,-20.2745z" fill="#efefee"/><path d="M100.01208,19.98675c6.64333,0.04556 13.33271,-0.08298 19.96896,0.03181c0.13208,6.59435 -0.00583,13.3554 0.05583,19.9829c-6.30354,-0.00417 -13.87458,-0.1875 -20.07354,0.10104c0.16896,-6.41562 0.02542,-13.62583 0.04875,-20.11575z" fill="#efefee"/><path d="M119.98417,0h20.04c-0.01188,6.38667 -0.17875,13.67517 0.01313,20.00119l-20.05625,0.01738z" fill="#efefee"/><path d="M79.98396,0h20.04021c-0.01125,6.34248 -0.18875,13.7429 0.01479,20.002l-20.05646,0.01671z" fill="#efefee"/><path d="M40.01208,39.98812c6.64021,0.03625 13.33958,-0.08542 19.97125,0.03063l0.03479,19.99062l-20.03167,-0.00042c-0.02521,-6.67354 -0.01667,-13.34729 0.02563,-20.02083z" fill="#efefee"/><path d="M159.98417,0h20.04c-0.08792,6.58106 -0.02771,13.40917 0.00792,19.99763l-20.08708,0.03396c0.14417,-6.53496 0.04208,-13.4656 0.03917,-20.03158z" fill="#efefee"/><path d="M60.01229,19.98829c6.64042,0.0361 13.33813,-0.08433 19.97021,0.03042c0.05979,6.479 -0.14687,13.61254 0.05646,19.98275l-20.05562,0.01729z" fill="#efefee"/><path d="M164.28125,28.78271c-0.69062,1.33104 -1.29604,2.12063 -2.17312,3.31792l-0.33458,-0.86583c0.82125,-0.83229 1.65729,-1.64979 2.50771,-2.45208z" fill="#606f2b"/><path d="M120.01854,39.98354l19.99687,-0.02042c-0.06417,5.02 0.09417,10.07208 0.15,15.09396c0.01937,1.72583 0.10458,3.23104 -0.14333,4.95292l-20.07021,0.02417c0.23229,-6.16229 0.02396,-13.73917 0.06667,-20.05062z" fill="#efefee"/><path d="M20.01106,59.98563l19.9754,0.02333c0.00438,1.68292 -0.20854,7.89021 0.40333,9.1025l0.40104,0.20375c6.41479,-1.29292 12.68354,-2.72167 19.17146,-3.98396c14.26688,-2.76625 24.31792,-5.15896 38.93646,-2.92917c2.23188,1.90854 5.1625,4.39563 7.01042,6.68208c1.36,1.68271 6.48,8.37063 6.365,10.34333c0.63146,0.5975 1.34125,1.21104 1.82125,1.92812c-5.87021,0.27021 -11.59833,0.57333 -17.41896,1.53896c-17.45146,2.89542 -34.59896,10.60333 -46.665,23.795c-11.18479,12.22833 -16.69458,27.78417 -18.22479,44.09c-0.42854,4.56667 -0.42729,8.22271 -0.57646,12.70521c0.59938,32.04542 7.99833,59.62979 31.80813,82.88188c16.05312,15.67708 43.33,29.41458 65.58771,33.61875c6.44229,1.1875 12.99146,1.69792 19.54,1.52083c17.88292,-0.35208 35.58417,-5.19167 51.6725,-12.86875c0.49687,2.59583 0.17562,8.44375 0.26646,11.39792c-2.10604,0.00833 -18.74604,-0.1875 -19.78396,0.34167c-0.44375,1.33333 -0.31,6.34375 0.08354,7.75833c2.68021,0.15833 5.38562,0.20208 8.01042,0.71042c-2.81854,0.88542 -5.26792,0.825 -8.2075,0.95c-0.37146,0.83125 -0.18604,8.6625 -0.17042,10.20417h-20.03396h-19.96646h-20.035h-19.97563h-20.02063h-19.97542h-20.02458h-19.97769h-20.00773v-19.97292v-20.01875v-19.97292v-20.02708v-19.97958v-20.02104v-19.97187v-20.01688v-19.99979v-20v-19.99312c4.32398,-0.03979 8.64815,-0.05375 12.97227,-0.04167c1.93848,-0.00042 5.14892,-0.10312 7.0075,0.02917c-0.02467,-6.67583 -0.01423,-13.35187 0.03129,-20.02792z" fill="#efefee"/><path d="M20.01442,259.98958c5.93038,0.00625 14.15038,-0.23542 19.92788,0.05625c6.57646,0.15417 13.405,0.00417 20.00417,0.0125c-0.02292,6.09792 -0.27646,14.00417 -0.00375,19.9875c0.32062,6.32083 -0.03229,13.525 0.06729,19.95417h-20.02458h-19.97769h-20.00773v-19.97292l13.11117,-0.03958c1.9066,0 5.04335,-0.09792 6.87125,0.02917z" fill="#fefefe"/><path d="M0,280.02708l13.11117,-0.03958c1.9066,0 5.04335,-0.09792 6.87125,0.02917c0.04838,6.66042 0.05681,13.32292 0.02531,19.98333h-20.00773z" fill="#efefee"/><path d="M20.01442,259.98958c5.93038,0.00625 14.15038,-0.23542 19.92788,0.05625c0.34625,6.42292 -0.14146,13.50208 0.09437,19.95625l-20.05425,0.01458z" fill="#efefee"/><path d="M40.01354,279.9875c5.90542,0.00625 14.17896,-0.23542 19.92917,0.05833c0.32062,6.32083 -0.03229,13.525 0.06729,19.95417h-20.02458z" fill="#efefee"/><path d="M0,240.03542c4.34392,-0.05 8.68817,-0.06458 13.03233,-0.04583c1.93571,-0.00208 5.09229,-0.10208 6.95094,0.02917l19.9909,-0.01458c-0.07833,6.68125 -0.08896,13.36042 -0.03187,20.04167c-5.7775,-0.29167 -13.9975,-0.05 -19.92788,-0.05625l-0.032,20.02708c-1.8279,-0.12708 -4.96465,-0.02917 -6.87125,-0.02917l-13.11117,0.03958v-20.01875z" fill="#fefefe"/><path d="M0,240.03542c4.34392,-0.05 8.68817,-0.06458 13.03233,-0.04583c1.93571,-0.00208 5.09229,-0.10208 6.95094,0.02917c0.0624,6.4125 -0.17548,13.71458 0.05435,19.98333l-20.03763,0.00625z" fill="#efefee"/><path d="M120.03521,289.93333c20.04854,0.47917 40.10604,0.43333 60.15229,-0.1375c-0.37146,0.83125 -0.18604,8.6625 -0.17042,10.20417h-20.03396h-19.96646h-20.035c-0.02729,-3.35625 -0.00938,-6.7125 0.05354,-10.06667z" fill="#efefee"/><path d="M140.0375,290.50417c6.6475,0.02708 13.295,0.00417 19.94208,-0.07292c0.02,3.18958 0.02125,6.37917 0.00354,9.56875h-19.96646c-0.00333,-3.10833 -0.0625,-6.40208 0.02083,-9.49583z" fill="#fefefe"/><path d="M0,220.00833c6.5104,0 13.48892,-0.12708 19.9596,0.0125l0.05573,0.15833c-0.046,6.6125 -0.05669,13.225 -0.03206,19.83958c-1.85865,-0.13125 -5.01523,-0.03125 -6.95094,-0.02917c-4.34417,-0.01875 -8.68842,-0.00417 -13.03233,0.04583z" fill="#fefefe"/><path d="M0,180.00771l19.9686,-0.00792c-0.05948,6.66 -0.07725,13.32062 -0.05331,19.98083l-19.91529,0.04812z" fill="#fefefe"/><path d="M59.94271,280.04583c6.63979,0.15833 13.40896,-0.03958 20.06458,0.01667l-0.02188,19.9375h-19.97542c-0.09958,-6.42917 0.25333,-13.63333 -0.06729,-19.95417z" fill="#fefefe"/><path d="M19.97977,80.01354c6.47794,0.01896 13.58252,0.13833 20.01127,-0.02l-0.02854,19.97208l-19.92075,0.01875c-0.22921,-6.36562 0.04277,-13.46354 -0.06198,-19.97083z" fill="#fefefe"/><path d="M0,140.01896l19.99202,-0.01396c-0.01179,6.38875 0.15367,13.65521 -0.04471,19.97688c-6.64915,-0.02542 -13.2984,-0.0075 -19.94731,0.05396z" fill="#fefefe"/><path d="M0,100.01917l20.0006,-0.00812c-0.01658,6.18938 0.19054,13.89625 -0.05602,19.95563c-6.27027,0.01312 -13.77994,-0.16583 -19.94458,0.0525z" fill="#fefefe"/><path d="M100.02958,280.12917c6.5625,0.12292 13.60792,-0.40417 19.92708,-0.25833c0.00521,1.925 0.20021,6.57083 -0.43917,8.10833c-2.00854,0.1 -4.26271,0.1625 -6.24667,0.34167c2.03083,1.28125 2.55687,0.12083 4.13146,1.51042l2.63292,0.10208c-0.06292,3.35417 -0.08083,6.71042 -0.05354,10.06667h-19.97563z" fill="#fefefe"/><path d="M107.67292,288.90208c1.77,-0.49792 3.76271,-0.52917 5.59792,-0.58125c2.03083,1.28125 2.55687,0.12083 4.13146,1.51042c-3.13896,-0.03542 -6.68104,-0.19167 -9.72937,-0.92917z" fill="#e54e44"/><path d="M59.96229,65.33125c14.26688,-2.76625 24.31792,-5.15896 38.93646,-2.92917c2.23188,1.90854 5.1625,4.39563 7.01042,6.68208c1.36,1.68271 6.48,8.37063 6.365,10.34333c-4.27292,-4.23833 -6.65625,-5.90958 -12.11271,-8.16792c-4.88958,-1.8275 -11.14667,-3.07729 -16.37979,-3.15021c-3.26208,-0.54021 -21.04917,-0.09104 -24.34333,0.96042c-6.04937,0.60708 -12.10146,2.35833 -17.91229,2.61417c-3.15875,-0.07417 -6.45167,0.13271 -9.64375,0.16146c2.60271,-1.01396 6.14813,-1.83167 8.90854,-2.53021c6.41479,-1.29292 12.68354,-2.72167 19.17146,-3.98396z" fill="#5e8513"/><path d="M83.78167,68.10938c5.23313,0.07292 11.49021,1.32271 16.37979,3.15021c-0.22958,1.30771 -0.33208,7.37479 -0.39896,8.99333c-6.62312,-0.03625 -13.08167,-0.27771 -19.73458,-0.25583c-0.00354,1.97062 0.00646,3.92771 -0.07917,5.89708c-0.20771,-1.87854 -0.15938,-3.79333 -0.15708,-5.68583c-5.25771,0.00187 -11.23063,0.13979 -16.43229,-0.07458c3.97042,-0.36375 12.32438,-0.12458 16.69021,-0.12729c-0.09937,-3.86187 -0.02625,-7.98979 -0.01875,-11.87229c1.39021,0.055 2.34937,0.09833 3.75083,-0.02479z" fill="#fefefe"/><path d="M41.52604,71.68396c5.81083,-0.25583 11.86292,-2.00708 17.91229,-2.61417l0.47708,0.21937c0.13813,2.36333 0.13625,8.32062 0.03292,10.68271l-13.33042,0.03396c-1.14396,0.00208 -5.62708,0.06646 -6.61042,-0.11104c-0.01,-1.25229 -0.16771,-7.18854 0.18813,-7.88021z" fill="#fefefe"/><path d="M119.5175,287.97917c20.28479,-0.64583 40.58583,-0.59375 60.86708,0.15625c2.68021,0.15833 5.38562,0.20208 8.01042,0.71042c-2.81854,0.88542 -5.26792,0.825 -8.2075,0.95c-20.04625,0.57083 -40.10375,0.61667 -60.15229,0.1375l-2.63292,-0.10208c-1.57458,-1.38958 -2.10062,-0.22917 -4.13146,-1.51042c1.98396,-0.17917 4.23812,-0.24167 6.24667,-0.34167z" fill="#bb0302"/><path d="M260.34167,140.7625c1.40208,-1.11375 6.13333,-0.79271 8.07083,-0.79313c3.85833,-0.01292 7.71458,0.00229 11.57083,0.04583c6.53958,0.01333 13.50833,0.11063 20.01667,-0.02146v20.01167v19.98833v20.01104v19.98896v20.01042v19.99583v20.00417v19.99583h-20.01667h-19.97292h-20.025h-19.97917h-20.01729h-19.97187c-0.01563,-1.54167 -0.20104,-9.37292 0.17042,-10.20417c2.93958,-0.125 5.38896,-0.06458 8.2075,-0.95c-2.62479,-0.50833 -5.33021,-0.55208 -8.01042,-0.71042c-0.39354,-1.41458 -0.52729,-6.425 -0.08354,-7.75833c1.03792,-0.52917 17.67792,-0.33333 19.78396,-0.34167c-0.09083,-2.95417 0.23042,-8.80208 -0.26646,-11.39792c10.13979,-5.05833 21.02729,-12.14375 28.99188,-20.25417c15.35208,-15.63125 27.53542,-44.08458 31.82292,-65.23375c1.54167,-7.58187 2.29792,-15.30208 2.26042,-23.03896c-0.25,-7.52771 -1.01875,-12.08104 -2.55208,-19.34813z" fill="#fefefe"/><path d="M260.0125,219.99375c6.64583,0.05208 13.32083,-0.08542 19.96875,0.025c6.54792,0.00208 13.50417,0.10625 20.01875,-0.025v20.01042v19.99583v20.00417v19.99583h-20.01667h-19.97292h-20.025h-19.97917c0.03125,-6.66042 0.02292,-13.32083 -0.025,-19.98125l20.05625,-0.01667c-0.22917,-6.21458 -0.00833,-13.63958 -0.05208,-19.98333l20.05208,-0.01667c-0.22917,-6.21875 -0.00625,-13.63125 -0.05208,-19.98125c-0.02708,-6.67708 -0.01667,-13.35208 0.02708,-20.02708z" fill="#fefefe"/><path d="M260.01458,259.9875c6.64167,0.03542 13.33125,-0.07917 19.96667,0.03125l20.01875,-0.01875v20.00417v19.99583h-20.01667h-19.97292c-0.07292,-6.64375 0.05625,-13.31458 -0.03125,-19.98125z" fill="#fefefe"/><path d="M280.0125,279.9875l19.9875,0.01667v19.99583h-20.01667z" fill="#efefee"/><path d="M260.01458,259.9875c6.64167,0.03542 13.33125,-0.07917 19.96667,0.03125c0.06458,6.4125 -0.175,13.71667 0.05625,19.98333l-20.05833,0.01667z" fill="#efefee"/><path d="M260.0125,219.99375c6.64583,0.05208 13.32083,-0.08542 19.96875,0.025c0.07083,6.43333 -0.17708,13.69792 0.05625,19.98333l-20.05208,0.01875c-0.02708,-6.67708 -0.01667,-13.35208 0.02708,-20.02708z" fill="#efefee"/><path d="M280.01042,239.9875l19.98958,0.01667v19.99583l-20.01875,0.01875z" fill="#efefee"/><path d="M240.01458,279.9875c6.65417,-0.03333 13.30833,-0.02292 19.96458,0.03125c0.0875,6.66667 -0.04167,13.3375 0.03125,19.98125h-20.025z" fill="#efefee"/><path d="M239.94792,239.92292c6.68125,0.14583 13.36667,-0.03125 20.0375,0.09792c0.04583,6.35 -0.17708,13.7625 0.05208,19.98125l-20.05208,0.01667c0.04375,-6.69167 -0.18333,-13.4 -0.0375,-20.09583z" fill="#efefee"/><path d="M219.98958,259.93125c1.9875,-0.07917 4.6875,0.03958 6.73333,0.04583c4.42083,-0.0125 8.84167,0.00208 13.2625,0.04167c0.04375,6.34375 -0.17708,13.76875 0.05208,19.98333l-20.05625,0.01667c0.02292,-6.70208 -0.11875,-13.37708 0.00833,-20.0875z" fill="#efefee"/><path d="M280.0125,199.98771l19.9875,0.01708v19.98896c-6.51458,0.13125 -13.47083,0.02708 -20.01875,0.025z" fill="#efefee"/><path d="M280.0125,159.98792l19.9875,0.0175v19.98833l-20.05208,0.04417c0.26458,-5.87958 0.0375,-13.96083 0.06458,-20.05z" fill="#efefee"/><path d="M200.00813,279.97708c6.64375,0.075 13.33562,-0.08542 19.97313,0.04167c0.04792,6.66042 0.05625,13.32083 0.025,19.98125h-20.01729z" fill="#efefee"/><path d="M260.34167,140.7625c1.40208,-1.11375 6.13333,-0.79271 8.07083,-0.79313c3.85833,-0.01292 7.71458,0.00229 11.57083,0.04583c0.08542,6.48604 -0.16875,13.64521 0.05833,19.99c-4.5375,0.00042 -9.08542,-0.01063 -13.62083,0.02792c-0.47917,0.00417 -3.25208,0.01271 -3.52708,0.0775c-0.25,-7.52771 -1.01875,-12.08104 -2.55208,-19.34813z" fill="#efefee"/><path d="M174.22396,92.27229c1.97875,4.31125 15.63708,-0.53646 17.93708,1.41333c-0.06729,0.59625 -0.17875,0.66313 -0.68187,1.05542c-5.97667,4.66354 -9.23687,-2.51625 -15.12604,1.71917c-3.49437,2.51313 -7.48458,7.30438 -11.36729,8.60187c-3.91,-2.54417 -7.33062,-3.81771 -12.13104,-3.80688c0.63313,-0.17479 5.96917,-0.94917 6.8125,-1.04583c6.69729,-0.76854 9.51042,-3.92667 14.55667,-7.93708z" fill="#bb0302"/><path d="M118.49354,88.34813c1.27688,2.01583 4.00208,6.39875 4.995,8.52c-7.63958,-2.56 -11.88604,-1.79812 -18.82979,-3.01833c3.8,-1.35687 6.90438,-3.63937 10.70562,-4.86083c1.23958,-0.39833 2.20604,0.49667 3.12917,-0.64083z" fill="#bb0302"/><path d="M125.19563,99.28125c0.46979,0.50938 1.86646,2.09458 2.29667,2.39042c-3.22021,0.41833 -6.62042,0.24646 -10.38396,0.75667c2.21917,-1.10042 5.81187,-1.88271 8.08729,-3.14708z" fill="#bb0302"/><path d="M248.78333,129.20063c0.15417,0.22792 0.23542,0.35208 0.3375,0.61146c2.70833,6.84729 2.9,17.32167 -0.18125,24.09604c-2.14375,4.71333 -5.5375,12.47167 -10.60625,14.20646c-4.20417,1.43896 -8.8375,1.33104 -12.94167,-0.36708c-6.26458,-2.59333 -8.40833,-9.16312 -13.5375,-13.65708c-5.36646,-4.69979 -9.67854,-9.10292 -15.625,-13.22083c-5.40854,-3.85396 -11.36917,-6.63104 -16.37625,-11.05437c-4.71312,-4.16354 -7.9,-11.24313 -4.80917,-17.26c1.40521,-2.73562 2.69812,-4.48729 5.38917,-5.99625c9.76313,-5.47458 19.99812,-9.08771 31.36917,-7.6725c6.02292,0.74125 12.29375,2.43583 17.45417,5.81896c1.4125,0.92687 2.98958,1.55125 4.11042,2.93417c0.11667,-0.47063 0.12917,-0.62729 0.08125,-1.10917l0.21042,-0.14167c1.74583,1.76542 3.91667,4.50083 5.8875,5.86771c2,1.3875 9.79375,13.84062 9.70625,15.42979c-0.46042,0.04583 -0.25833,-0.03437 -0.625,0.24958l0.05833,-0.20562c-0.20833,0.48354 -0.02083,0.86583 0.09792,1.47042z" fill="url(#color-2)"/><path d="M239.87917,120.67958c0.79583,1.16583 1.3875,3.39146 2.75208,3.61688c0.525,0.52417 1.36458,2.88125 1.62917,3.7125c2.40833,7.56063 0.79167,18.07146 -7.51458,21.13479c-4.17292,1.53938 -11.21667,-1.18125 -15.19792,-3.36896c-7.46042,-4.18542 -13.82063,-10.08146 -18.55875,-17.20333c-3.10542,-4.62125 -5.53875,-10.49542 -1.80083,-15.59979c5.59417,-7.63917 13.68042,-7.39604 22.11583,-6.38792c1.41667,0.16938 6.12708,2.77771 7.40417,3.68875l0.50417,-0.2l0.20208,0.22313c0.08542,1.1875 0.1375,1.49729 1.2125,2.14021c2.41042,2.36063 5.54167,5.33312 7.25208,8.24375z" fill="url(#color-3)"/><path d="M222.2375,114.84188c0.71042,-0.23167 1.12917,-0.11688 1.89375,-0.18271c8.66042,-0.74583 18.10208,13.12979 11.61458,20.13146c-1.29792,1.40021 -3.38542,1.81563 -5.34375,1.77417c-7.19792,-1.80083 -13.14375,-8.13688 -15.35208,-15.10125c0.91875,-3.50208 3.34583,-6.44313 7.1875,-6.62167z" fill="#f1aba8"/><path d="M233.36667,107.63958c0.11667,-0.47063 0.12917,-0.62729 0.08125,-1.10917l0.21042,-0.14167c1.74583,1.76542 3.91667,4.50083 5.8875,5.86771c2,1.3875 9.79375,13.84062 9.70625,15.42979c-0.46042,0.04583 -0.25833,-0.03437 -0.625,0.24958l0.05833,-0.20562c-0.20833,0.48354 -0.02083,0.86583 0.09792,1.47042l-0.38958,0.02833c-0.43125,-0.56479 -1.3125,-1.3075 -1.86458,-1.815l0.03125,0.09917c-1.24167,-1.41021 -5.20208,-6.27833 -6.68125,-6.83354c-1.71042,-2.91062 -4.84167,-5.88312 -7.25208,-8.24375c0.52917,-1.30625 -0.33958,-2.81062 0.73958,-4.79625z" fill="#e54e44"/><path d="M87.91667,96.35417c3.78562,-1.37438 9.97479,2.61896 11.32229,6.37937c2.93542,8.19125 4.4475,15.36562 1.36896,23.79313c-4.47062,12.23854 -12.30771,23.46333 -24.17687,29.44854c-2.67646,1.34958 -5.91104,1.38854 -8.84417,1.43542c-0.51292,0.00625 -1.57792,-0.605 -2.15146,-0.59729c-1.41271,-0.11667 -2.91396,-0.26771 -4.24812,-0.78792c-3.26438,-0.5025 -10.23833,-3.04083 -12.32896,-5.52958c-0.99458,-1.18396 -1.545,-2.47854 -2.58208,-3.86896c-0.04354,-1.67229 -0.63563,-5.02771 -0.485,-6.40583c0.35708,-3.2675 1.01417,-7.64896 2.11833,-10.73687c0.34438,-0.935 0.24354,-2.4225 0.55292,-3.28875c2.42812,-6.8 4.40021,-11.78604 9.71604,-16.91c8.28542,-7.98604 17.99521,-13.07583 29.73813,-12.93125z" fill="#e54e44"/><path d="M79.73854,102.8125c5.00083,-0.12792 9.01771,0.8075 11.12854,5.80333c3.47208,8.21771 0.73833,17.9975 -3.64083,25.3425c-3.13917,5.26542 -10.55729,11.79208 -17.07354,9.14167c-5.68729,-0.96021 -13.42521,-6.62 -13.87125,-12.82667c-0.38,-5.28625 0.1675,-11.45208 3.44854,-15.79292c4.84562,-6.40333 12.04937,-10.60417 20.00854,-11.66792z" fill="#e8817b"/><path d="M76.82458,112.57583c0.9425,-0.41563 2.72312,0.24021 3.62625,0.65083c4.08167,1.85604 4.68792,6.78854 2.72125,10.45125c-1.8975,3.53396 -4.10854,6.48229 -8.01896,7.84042c-1.03521,-0.28583 -1.41479,-0.62854 -2.2525,-1.23875c-4.71792,-3.43604 -7.69771,-9.74417 -2.97271,-14.65562c1.81063,-1.88063 4.28708,-2.975 6.89667,-3.04812z" fill="#f1aba8"/></g></svg></svg>